<svg width="18" height="18" viewBox="0 0 18 18" fill="none" xmlns="http://www.w3.org/2000/svg">
<path d="M17 9C17 13.4183 13.4183 17 9 17C4.58172 17 1 13.4183 1 9C1 4.58172 4.58172 1 9 1C13.4183 1 17 4.58172 17 9Z" stroke="#7C4BB4" stroke-width="2"/>
<path fill-rule="evenodd" clip-rule="evenodd" d="M6.78359 5.30602C6.37557 4.89799 5.71404 4.89799 5.30602 5.30602C4.89799 5.71404 4.89799 6.37558 5.30602 6.7836L7.52244 9.00004L5.3061 11.2164C4.89808 11.6244 4.89808 12.286 5.3061 12.694C5.71412 13.102 6.37565 13.102 6.78368 12.694L9.00002 10.4776L11.2163 12.6939C11.6243 13.102 12.2859 13.102 12.6939 12.6939C13.1019 12.2859 13.1019 11.6244 12.6939 11.2164L10.4776 9.00004L12.694 6.78364C13.102 6.37562 13.102 5.71408 12.694 5.30605C12.286 4.89803 11.6244 4.89803 11.2164 5.30605L9.00002 7.52246L6.78359 5.30602Z" fill="currentColor"/>
</svg>
