<svg width="24" height="25" viewBox="0 0 24 25" fill="none" xmlns="http://www.w3.org/2000/svg">
<path d="M20.75 16.5625V3.4375C20.75 2.91797 20.332 2.5 19.8125 2.5H7C4.92969 2.5 3.25 4.17969 3.25 6.25V18.75C3.25 20.8203 4.92969 22.5 7 22.5H19.8125C20.332 22.5 20.75 22.082 20.75 21.5625V20.9375C20.75 20.6445 20.6133 20.3789 20.4023 20.207C20.2383 19.6055 20.2383 17.8906 20.4023 17.2891C20.6133 17.1211 20.75 16.8555 20.75 16.5625ZM8.25 7.73438C8.25 7.60547 8.35547 7.5 8.48438 7.5H16.7656C16.8945 7.5 17 7.60547 17 7.73438V8.51562C17 8.64453 16.8945 8.75 16.7656 8.75H8.48438C8.35547 8.75 8.25 8.64453 8.25 8.51562V7.73438ZM8.25 10.2344C8.25 10.1055 8.35547 10 8.48438 10H16.7656C16.8945 10 17 10.1055 17 10.2344V11.0156C17 11.1445 16.8945 11.25 16.7656 11.25H8.48438C8.35547 11.25 8.25 11.1445 8.25 11.0156V10.2344ZM18.1484 20H7C6.30859 20 5.75 19.4414 5.75 18.75C5.75 18.0625 6.3125 17.5 7 17.5H18.1484C18.0742 18.168 18.0742 19.332 18.1484 20Z" fill="currentColor"/>
</svg>
