<svg width="24" height="24" viewBox="0 0 24 24" fill="none" xmlns="http://www.w3.org/2000/svg">
<path d="M11.916 4.41675L6.49936 8.75008H2.16602V15.2501H6.49936L11.916 19.5835V4.41675Z" stroke="inherit" stroke-width="1.5" stroke-linecap="round" stroke-linejoin="round"/>
<path d="M18.8242 4.34082C20.8551 6.37237 21.9959 9.12737 21.9959 12C21.9959 14.8726 20.8551 17.6275 18.8242 19.6592M15 8.16498C16.0154 9.18076 16.5859 10.5583 16.5859 11.9946C16.5859 13.4309 16.0154 14.8084 15 15.8242" stroke="inherit" stroke-width="1.5" stroke-linecap="round" stroke-linejoin="round"/>
<circle cx="18" cy="18" r="5" fill="white"/>
<path d="M14.464 21.484L21.496 14.464M17.98 13C18.965 13 19.9278 13.2921 20.7467 13.8393C21.5657 14.3865 22.204 15.1643 22.5809 16.0742C22.9578 16.9842 23.0565 17.9855 22.8643 18.9516C22.6722 19.9176 22.1979 20.8049 21.5014 21.5014C20.8049 22.1979 19.9176 22.6722 18.9516 22.8643C17.9855 23.0565 16.9842 22.9578 16.0742 22.5809C15.1643 22.204 14.3865 21.5657 13.8393 20.7467C13.2921 19.9278 13 18.965 13 17.98C13 16.6592 13.5247 15.3925 14.4586 14.4586C15.3925 13.5247 16.6592 13 17.98 13Z" stroke="inherit" stroke-linecap="round" stroke-linejoin="round"/>
</svg>
