<svg width="22" height="22" viewBox="0 0 22 22" fill="none" xmlns="http://www.w3.org/2000/svg">
<g opacity="inherit">
<path d="M11 0.916748C10.2707 0.916748 9.57118 1.20648 9.05545 1.7222C8.53973 2.23793 8.25 2.93741 8.25 3.66675V11.0001C8.25 11.7294 8.53973 12.4289 9.05545 12.9447C9.57118 13.4603 10.2707 13.7501 11 13.7501C11.7293 13.7501 12.4288 13.4603 12.9446 12.9447C13.4603 12.4289 13.75 11.7294 13.75 11.0001V3.66675C13.75 2.93741 13.4603 2.23793 12.9446 1.7222C12.4288 1.20648 11.7293 0.916748 11 0.916748Z" stroke="currentColor" stroke-width="1.5" stroke-linecap="round" stroke-linejoin="round"/>
<path d="M17.4165 9.16675V11.0001C17.4165 12.7019 16.7404 14.334 15.537 15.5374C14.3338 16.7407 12.7016 17.4167 10.9998 17.4167C9.29799 17.4167 7.66589 16.7407 6.46253 15.5374C5.25918 14.334 4.58313 12.7019 4.58313 11.0001V9.16675" stroke="currentColor" stroke-width="1.5" stroke-linecap="round" stroke-linejoin="round"/>
<path d="M11 17.4167V21.0835" stroke="currentColor" stroke-width="1.5" stroke-linecap="round" stroke-linejoin="round"/>
<path d="M7.33325 21.0833H14.6666" stroke="currentColor" stroke-width="1.5" stroke-linecap="round" stroke-linejoin="round"/>
</g>
</svg>
