<svg width="14" height="18" viewBox="0 0 14 18" fill="none" xmlns="http://www.w3.org/2000/svg">
<path d="M1.5835 13.8771V2.91663C1.5835 2.36434 2.03121 1.91663 2.5835 1.91663H11.8335C12.3858 1.91663 12.8335 2.36434 12.8335 2.91663V14.2516C12.8335 15.0428 11.9583 15.5206 11.2927 15.0928L7.5293 12.6734C7.2059 12.4655 6.79189 12.4615 6.46444 12.663L3.10759 14.7287C2.44132 15.1387 1.5835 14.6594 1.5835 13.8771Z" fill="#4d0798" stroke="#4d0798"/>
<path d="M12.8332 16.5L6.99984 12.3333L1.1665 16.5V3.16667C1.1665 2.72464 1.3421 2.30072 1.65466 1.98816C1.96722 1.67559 2.39114 1.5 2.83317 1.5H11.1665C11.6085 1.5 12.0325 1.67559 12.345 1.98816C12.6576 2.30072 12.8332 2.72464 12.8332 3.16667V16.5Z" stroke="#4d0798" stroke-width="1.5" stroke-linecap="round" stroke-linejoin="round"/>
</svg>
