<svg width="14" height="20" viewBox="0 0 14 20" fill="none" xmlns="http://www.w3.org/2000/svg">
<path d="M7 0.833328C6.33696 0.833328 5.70107 1.09672 5.23223 1.56556C4.76339 2.0344 4.5 2.67029 4.5 3.33333V10C4.5 10.663 4.76339 11.2989 5.23223 11.7678C5.70107 12.2366 6.33696 12.5 7 12.5C7.663 12.5 8.2989 12.2366 8.7678 11.7678C9.2366 11.2989 9.5 10.663 9.5 10V3.33333C9.5 2.67029 9.2366 2.0344 8.7678 1.56556C8.2989 1.09672 7.663 0.833328 7 0.833328Z" stroke="#070707" stroke-width="1.5" stroke-linecap="round" stroke-linejoin="round"/>
<path d="M12.8332 8.33333V10C12.8332 11.5471 12.2186 13.0308 11.1246 14.1248C10.0307 15.2187 8.5469 15.8333 6.99984 15.8333C5.45274 15.8333 3.96901 15.2187 2.87505 14.1248C1.78109 13.0308 1.1665 11.5471 1.1665 10V8.33333" stroke="#070707" stroke-width="1.5" stroke-linecap="round" stroke-linejoin="round"/>
<path d="M7 15.8333V19.1667" stroke="#070707" stroke-width="1.5" stroke-linecap="round" stroke-linejoin="round"/>
<path d="M3.6665 19.1667H10.3332" stroke="#070707" stroke-width="1.5" stroke-linecap="round" stroke-linejoin="round"/>
</svg>
