<svg width="20" height="20" viewBox="0 0 20 20" fill="none" xmlns="http://www.w3.org/2000/svg">
<path d="M11.848 3.148V4.348M18.472 4.876V17.008C18.4688 17.5353 18.258 18.0402 17.8851 18.4131C17.5122 18.786 17.0073 18.9969 16.48 19H3.52C2.99266 18.9969 2.48781 18.786 2.11492 18.4131C1.74203 18.0402 1.53115 17.5353 1.528 17.008V2.992C1.53115 2.46466 1.74203 1.95981 2.11492 1.58692C2.48781 1.21403 2.99266 1.00315 3.52 1H14.596L18.472 4.876ZM14.596 1H5.404V6.46H14.596V1ZM14.596 11.116H5.404V18.988H14.596V11.116Z" stroke="#070707" stroke-width="1.5" stroke-linecap="round" stroke-linejoin="round"/>
</svg>
