<svg width="24" height="24" viewBox="0 0 24 24" fill="none" xmlns="http://www.w3.org/2000/svg">
<g clip-path="url(#clip0_1214_8232)">
<path d="M18.276 1.2C19.8059 2.73027 20.7979 4.71564 21.103 6.85786C21.4081 9.00008 21.0098 11.1835 19.968 13.08M14.736 4.68C15.2008 5.1437 15.5695 5.69453 15.8211 6.30095C16.0727 6.90737 16.2023 7.55746 16.2023 8.214C16.2023 8.87054 16.0727 9.52063 15.8211 10.1271C15.5695 10.7335 15.2008 11.2843 14.736 11.748M10.2 1.272L5.196 5.268H1.2V11.268H5.196L10.2 15.276V1.272Z" stroke="#070707" stroke-width="1.5" stroke-linecap="round" stroke-linejoin="round"/>
<path d="M15.396 21.888C15.373 21.5174 15.4977 21.1528 15.7428 20.8739C15.9879 20.5951 16.3335 20.4247 16.704 20.4H23.364M16.8 13.392H23.424V23.352H16.8C16.4276 23.352 16.0705 23.2041 15.8072 22.9408C15.5439 22.6775 15.396 22.3204 15.396 21.948V14.748C15.4054 14.383 15.5579 14.0363 15.8205 13.7827C16.0831 13.529 16.4349 13.3887 16.8 13.392V13.392Z" stroke="#070707" stroke-linecap="round"/>
</g>
<defs>
<clipPath id="clip0_1214_8232">
<rect width="24" height="24" fill="white"/>
</clipPath>
</defs>
</svg>
