<svg width="24" height="24" viewBox="0 0 24 24" fill="none" xmlns="http://www.w3.org/2000/svg">
<g clip-path="url(#clip0_1214_8242)">
<path d="M18.276 1.2C19.8059 2.73027 20.7979 4.71564 21.103 6.85786C21.4081 9.00008 21.0098 11.1835 19.968 13.08M14.736 4.68C15.2008 5.1437 15.5696 5.69453 15.8212 6.30095C16.0728 6.90737 16.2023 7.55746 16.2023 8.214C16.2023 8.87054 16.0728 9.52063 15.8212 10.1271C15.5696 10.7335 15.2008 11.2843 14.736 11.748M10.2 1.272L5.19601 5.268H1.20001V11.268H5.19601L10.2 15.276V1.272Z" stroke="#070707" stroke-width="1.5" stroke-linecap="round" stroke-linejoin="round"/>
<path d="M18.216 14.22C17.8116 14.5893 17.5129 15.0597 17.3505 15.5827C17.1881 16.1057 17.1679 16.6626 17.292 17.196L13.344 20.796C13.0491 21.0571 12.8687 21.4236 12.8418 21.8165C12.8149 22.2094 12.9435 22.5971 13.2 22.896V22.896C13.4722 23.1881 13.8474 23.3627 14.2461 23.3828C14.6448 23.403 15.0357 23.2671 15.336 23.004L19.26 19.404C19.7749 19.5766 20.3263 19.6102 20.8583 19.5014C21.3904 19.3926 21.8843 19.1452 22.29 18.7843C22.6958 18.4233 22.9991 17.9616 23.1692 17.4459C23.3393 16.9301 23.3701 16.3786 23.2587 15.8471C23.1473 15.3156 22.8974 14.8229 22.5345 14.4189C22.1716 14.0149 21.7084 13.7139 21.1918 13.5464C20.6752 13.3789 20.1235 13.3507 19.5926 13.4648C19.0616 13.5788 18.5702 13.8311 18.168 14.196L18.216 14.22ZM15.396 17.472L16.116 18.252L15.396 17.472ZM14.052 18.684L14.772 19.464L14.052 18.684ZM12.72 19.896L13.428 20.688L12.72 19.896ZM20.868 15.696C20.9082 15.6875 20.9498 15.688 20.9898 15.6977C21.0297 15.7073 21.0671 15.7257 21.099 15.7516C21.1309 15.7774 21.1567 15.8101 21.1744 15.8472C21.1921 15.8843 21.2012 15.9249 21.2012 15.966C21.2012 16.0071 21.1921 16.0477 21.1744 16.0848C21.1567 16.1219 21.1309 16.1546 21.099 16.1804C21.0671 16.2063 21.0297 16.2247 20.9898 16.2343C20.9498 16.244 20.9082 16.2445 20.868 16.236C20.798 16.236 20.7308 16.2082 20.6813 16.1587C20.6318 16.1092 20.604 16.042 20.604 15.972C20.6024 15.9363 20.608 15.9007 20.6205 15.8673C20.6331 15.8339 20.6523 15.8033 20.677 15.7775C20.7016 15.7517 20.7313 15.7312 20.7641 15.7172C20.797 15.7032 20.8323 15.696 20.868 15.696V15.696Z" stroke="#070707" stroke-linecap="round" stroke-linejoin="round"/>
</g>
<defs>
<clipPath id="clip0_1214_8242">
<rect width="24" height="24" fill="white"/>
</clipPath>
</defs>
</svg>
