<svg width="24" height="24" viewBox="0 0 24 24" fill="none" xmlns="http://www.w3.org/2000/svg">
<g opacity="0.7" clip-path="url(#clip0_1214_8225)">
<path d="M18.276 1.2C19.8059 2.73027 20.7979 4.71564 21.103 6.85786C21.4081 9.00008 21.0098 11.1835 19.968 13.08M14.736 4.68C15.2008 5.1437 15.5695 5.69453 15.8211 6.30095C16.0727 6.90737 16.2023 7.55746 16.2023 8.214C16.2023 8.87054 16.0727 9.52063 15.8211 10.1271C15.5695 10.7335 15.2008 11.2843 14.736 11.748M10.2 1.272L5.196 5.268H1.2V11.268H5.196L10.2 15.276V1.272Z" stroke="#070707" stroke-width="1.5" stroke-linecap="round" stroke-linejoin="round"/>
<path d="M14.88 21.924L21.912 14.904M18.396 13.44C19.381 13.44 20.3438 13.7321 21.1627 14.2793C21.9817 14.8265 22.62 15.6043 22.9969 16.5142C23.3738 17.4242 23.4725 18.4255 23.2803 19.3916C23.0882 20.3576 22.6139 21.2449 21.9174 21.9414C21.2209 22.6379 20.3336 23.1122 19.3676 23.3043C18.4015 23.4965 17.4002 23.3978 16.4902 23.0209C15.5803 22.644 14.8025 22.0057 14.2553 21.1867C13.7081 20.3678 13.416 19.405 13.416 18.42C13.416 17.0992 13.9407 15.8325 14.8746 14.8986C15.8085 13.9647 17.0752 13.44 18.396 13.44V13.44Z" stroke="#070707" stroke-linecap="round" stroke-linejoin="round"/>
</g>
<defs>
<clipPath id="clip0_1214_8225">
<rect width="24" height="24" fill="white"/>
</clipPath>
</defs>
</svg>
