<svg width="24" height="24" viewBox="0 0 24 24" fill="none" xmlns="http://www.w3.org/2000/svg">
<g clip-path="url(#clip0_1214_8252)">
<path d="M18.276 1.2C19.8059 2.73027 20.7979 4.71564 21.103 6.85786C21.4081 9.00008 21.0098 11.1835 19.968 13.08M14.736 4.68C15.2008 5.1437 15.5696 5.69453 15.8212 6.30095C16.0728 6.90737 16.2023 7.55746 16.2023 8.214C16.2023 8.87054 16.0728 9.52063 15.8212 10.1271C15.5696 10.7335 15.2008 11.2843 14.736 11.748M10.2 1.272L5.19601 5.268H1.20001V11.268H5.19601L10.2 15.276V1.272Z" stroke="#070707" stroke-width="1.5" stroke-linecap="round" stroke-linejoin="round"/>
<path d="M21.192 13.704C21.5559 13.737 21.8942 13.9049 22.1406 14.1747C22.387 14.4445 22.5236 14.7966 22.5236 15.162C22.5236 15.5274 22.387 15.8795 22.1406 16.1493C21.8942 16.4191 21.5559 16.587 21.192 16.62C20.9894 16.6384 20.7852 16.6144 20.5924 16.5495C20.3996 16.4846 20.2225 16.3802 20.0723 16.243C19.9221 16.1058 19.8021 15.9388 19.7201 15.7527C19.638 15.5666 19.5956 15.3654 19.5956 15.162C19.5956 14.9586 19.638 14.7574 19.7201 14.5713C19.8021 14.3851 19.9221 14.2182 20.0723 14.081C20.2225 13.9438 20.3996 13.8394 20.5924 13.7745C20.7852 13.7096 20.9894 13.6856 21.192 13.704V13.704ZM21.924 18.504H20.46C20.2657 18.5012 20.073 18.5381 19.8935 18.6124C19.7139 18.6866 19.5515 18.7968 19.416 18.936C19.6774 19.0478 19.9005 19.2333 20.0582 19.4699C20.2159 19.7064 20.3013 19.9837 20.304 20.268V22.356H23.364V19.956C23.364 19.7669 23.3268 19.5796 23.2544 19.4049C23.182 19.2302 23.0759 19.0715 22.9422 18.9378C22.8085 18.804 22.6498 18.698 22.4751 18.6256C22.3004 18.5532 22.1131 18.516 21.924 18.516V18.504ZM15.156 20.28C15.1558 19.992 15.2413 19.7104 15.4015 19.4711C15.5618 19.2317 15.7896 19.0455 16.056 18.936C15.9201 18.8015 15.759 18.6951 15.5819 18.6231C15.4048 18.551 15.2152 18.5146 15.024 18.516H13.56C13.1781 18.516 12.8118 18.6677 12.5418 18.9378C12.2717 19.2078 12.12 19.5741 12.12 19.956V22.356H15.156V20.28ZM14.292 13.704C14.5826 13.7016 14.8672 13.7858 15.1098 13.9457C15.3524 14.1057 15.5419 14.3342 15.6542 14.6022C15.7665 14.8702 15.7965 15.1655 15.7404 15.4506C15.6843 15.7357 15.5446 15.9977 15.3392 16.2032C15.1337 16.4086 14.8717 16.5483 14.5866 16.6044C14.3015 16.6605 14.0062 16.6305 13.7382 16.5182C13.4702 16.4059 13.2417 16.2164 13.0817 15.9738C12.9218 15.7313 12.8376 15.4466 12.84 15.156C12.84 14.9653 12.8776 14.7765 12.9505 14.6003C13.0235 14.4242 13.1304 14.2641 13.2653 14.1293C13.4001 13.9944 13.5602 13.8875 13.7363 13.8145C13.9125 13.7416 14.1013 13.704 14.292 13.704ZM16.596 18.828H18.84C19.0301 18.8216 19.2196 18.8529 19.3975 18.9202C19.5755 18.9874 19.7383 19.0893 19.8767 19.2198C20.015 19.3504 20.1261 19.507 20.2036 19.6807C20.2811 19.8545 20.3233 20.0418 20.328 20.232V23.388H15.156V20.28C15.1528 20.0905 15.1874 19.9022 15.2577 19.7262C15.3281 19.5501 15.4327 19.3899 15.5657 19.2547C15.6986 19.1195 15.8571 19.0122 16.0319 18.9389C16.2068 18.8657 16.3944 18.828 16.584 18.828H16.596ZM17.724 13.428C18.0629 13.4304 18.3935 13.533 18.6741 13.723C18.9547 13.913 19.1727 14.1818 19.3008 14.4956C19.4288 14.8093 19.4611 15.154 19.3935 15.4861C19.326 15.8181 19.1616 16.1228 18.9212 16.3616C18.6807 16.6004 18.3749 16.7626 18.0424 16.8279C17.7098 16.8931 17.3654 16.8584 17.0526 16.7282C16.7397 16.598 16.4724 16.378 16.2844 16.0961C16.0963 15.8142 15.996 15.4829 15.996 15.144C15.996 14.9176 16.0408 14.6935 16.1278 14.4845C16.2147 14.2755 16.3422 14.0858 16.5028 13.9263C16.6635 13.7668 16.854 13.6407 17.0636 13.5552C17.2732 13.4696 17.4976 13.4264 17.724 13.428V13.428Z" stroke="#070707" stroke-linecap="round" stroke-linejoin="round"/>
</g>
<defs>
<clipPath id="clip0_1214_8252">
<rect width="24" height="24" fill="white"/>
</clipPath>
</defs>
</svg>
