<svg width="24" height="24" viewBox="0 0 24 24" fill="none" xmlns="http://www.w3.org/2000/svg">
<path fill-rule="evenodd" clip-rule="evenodd" d="M8.45331 6.51985C8.10603 7.11231 7.61065 7.60744 7.01798 7.95441V8.84762C7.01798 9.24211 7.33929 9.5619 7.73565 9.5619H17.2644C17.6607 9.5619 17.982 9.24211 17.982 8.84762V4.93872L20.5647 7.5092V19.7281C20.562 20.0835 20.419 20.4237 20.1664 20.6751C19.9139 20.9265 19.5721 21.0688 19.215 21.0714H17.982V13.6514C17.982 13.2569 17.6607 12.9371 17.2644 12.9371H7.73565C7.33929 12.9371 7.01798 13.2569 7.01798 13.6514V21.0714H5.78501C5.42789 21.0688 5.08612 20.9265 4.83356 20.6751C4.581 20.4237 4.43797 20.0835 4.43533 19.7281V8.46045C3.91858 8.38744 3.43357 8.21568 3 7.96487V19.7305L3.00001 19.7347C3.0044 20.4668 3.29853 21.1676 3.81862 21.6852C4.33871 22.2029 5.04285 22.4956 5.77835 22.5L5.78263 22.5H19.2174L19.2216 22.5C19.9572 22.4956 20.6613 22.2029 21.1814 21.6852C21.7015 21.1676 21.9956 20.4668 22 19.7347L22 19.7305V7.21333C22 7.02389 21.9244 6.84221 21.7898 6.70826L17.7718 2.70921C17.6419 2.57995 17.4625 2.5 17.2644 2.5H8.46487C8.71458 2.93168 8.88594 3.41435 8.95949 3.92857H16.5467V8.13333H8.45331V6.51985ZM16.5467 14.3657V21.059H8.45331V14.3657H16.5467ZM15.1334 5.43048C15.1334 5.03599 14.8121 4.71619 14.4157 4.71619C14.0193 4.71619 13.698 5.03599 13.698 5.43048V6.66857C13.698 7.06306 14.0193 7.38286 14.4157 7.38286C14.8121 7.38286 15.1334 7.06306 15.1334 6.66857V5.43048Z" fill="#6A6A6A"/>
<circle cx="5" cy="4.5" r="3" fill="#7C4BB4"/>
</svg>
