<svg width="22" height="22" viewBox="0 0 22 22" fill="none" xmlns="http://www.w3.org/2000/svg">
<g opacity="inherit" clip-path="url(#clip0_2100_8684)">
<path d="M16.7531 1.1001C18.1555 2.50284 19.0648 4.32277 19.3445 6.28647C19.6242 8.25017 19.2591 10.2516 18.3041 11.9901M13.5081 4.2901C13.9342 4.71516 14.2722 5.22009 14.5028 5.77597C14.7334 6.33185 14.8522 6.92777 14.8522 7.5296C14.8522 8.13143 14.7334 8.72734 14.5028 9.28323C14.2722 9.83911 13.9342 10.344 13.5081 10.7691M9.3501 1.1661L4.7631 4.8291H1.1001V10.3291H4.7631L9.3501 14.0031V1.1661Z" stroke="currentColor" stroke-width="1.5" stroke-linecap="round" stroke-linejoin="round"/>
<path d="M14.1131 20.0639C14.092 19.7242 14.2063 19.39 14.431 19.1344C14.6557 18.8788 14.9725 18.7225 15.3121 18.6999H21.4171M15.4001 12.2759H21.4721V21.4059H15.4001C15.0587 21.4059 14.7314 21.2703 14.49 21.029C14.2487 20.7876 14.1131 20.4603 14.1131 20.1189V13.5189C14.1217 13.1844 14.2615 12.8666 14.5022 12.6341C14.7429 12.4015 15.0654 12.2729 15.4001 12.2759V12.2759Z" stroke="currentColor" stroke-linecap="round"/>
</g>
<defs>
<clipPath id="clip0_2100_8684">
<rect width="22" height="22" fill="white"/>
</clipPath>
</defs>
</svg>
