<svg width="22" height="22" viewBox="0 0 22 22" fill="none" xmlns="http://www.w3.org/2000/svg">
<g opacity="inherit" clip-path="url(#clip0_2100_7900)">
<path d="M16.7531 1.1001C18.1555 2.50284 19.0648 4.32277 19.3445 6.28647C19.6242 8.25017 19.2591 10.2516 18.3041 11.9901M13.5081 4.2901C13.9342 4.71516 14.2722 5.22009 14.5028 5.77597C14.7334 6.33185 14.8522 6.92777 14.8522 7.5296C14.8522 8.13143 14.7334 8.72734 14.5028 9.28323C14.2722 9.83911 13.9342 10.344 13.5081 10.7691M9.3501 1.1661L4.7631 4.8291H1.1001V10.3291H4.7631L9.3501 14.0031V1.1661Z" stroke="currentColor" stroke-width="1.5" stroke-linecap="round" stroke-linejoin="round"/>
<path d="M13.6401 20.0971L20.0861 13.6621M16.8631 12.3201C17.766 12.3201 18.6486 12.5878 19.3993 13.0894C20.15 13.591 20.7351 14.304 21.0806 15.1381C21.4261 15.9723 21.5165 16.8901 21.3404 17.7757C21.1642 18.6612 20.7295 19.4746 20.091 20.113C19.4526 20.7514 18.6392 21.1862 17.7537 21.3624C16.8682 21.5385 15.9503 21.4481 15.1161 21.1026C14.282 20.7571 13.569 20.172 13.0674 19.4212C12.5658 18.6705 12.2981 17.7879 12.2981 16.8851C12.2981 15.6744 12.779 14.5132 13.6352 13.6571C14.4913 12.801 15.6524 12.3201 16.8631 12.3201V12.3201Z" stroke="currentColor" stroke-linecap="round" stroke-linejoin="round"/>
</g>
<defs>
<clipPath id="clip0_2100_7900">
<rect width="22" height="22" fill="white"/>
</clipPath>
</defs>
</svg>
