<svg width="22" height="22" viewBox="0 0 22 22" fill="none" xmlns="http://www.w3.org/2000/svg">
<g opacity="inherit" clip-path="url(#clip0_2100_8703)">
<path d="M16.7531 1.1001C18.1555 2.50284 19.0648 4.32277 19.3445 6.28647C19.6242 8.25017 19.2591 10.2516 18.3041 11.9901M13.5081 4.2901C13.9342 4.71516 14.2722 5.22009 14.5028 5.77597C14.7334 6.33185 14.8522 6.92777 14.8522 7.5296C14.8522 8.13143 14.7334 8.72734 14.5028 9.28323C14.2722 9.83911 13.9342 10.344 13.5081 10.7691M9.3501 1.1661L4.7631 4.8291H1.1001V10.3291H4.7631L9.3501 14.0031V1.1661Z" stroke="currentColor" stroke-width="1.5" stroke-linecap="round" stroke-linejoin="round"/>
<path d="M16.6979 13.0349C16.3272 13.3735 16.0534 13.8046 15.9045 14.2841C15.7557 14.7635 15.7372 15.2739 15.8509 15.7629L12.2319 19.0629C11.9616 19.3022 11.7963 19.6382 11.7716 19.9984C11.7469 20.3585 11.8648 20.714 12.0999 20.9879V20.9879C12.3494 21.2556 12.6934 21.4157 13.0589 21.4342C13.4243 21.4527 13.7827 21.3281 14.0579 21.0869L17.6549 17.7869C18.1269 17.9452 18.6323 17.976 19.12 17.8762C19.6078 17.7764 20.0605 17.5497 20.4325 17.2188C20.8044 16.8879 21.0824 16.4647 21.2383 15.992C21.3942 15.5192 21.4225 15.0136 21.3204 14.5264C21.2182 14.0392 20.9892 13.5876 20.6565 13.2172C20.3238 12.8469 19.8993 12.571 19.4257 12.4174C18.9522 12.2639 18.4465 12.238 17.9598 12.3426C17.4731 12.4472 17.0226 12.6784 16.6539 13.0129L16.6979 13.0349ZM14.1129 16.0159L14.7729 16.7309L14.1129 16.0159ZM12.8809 17.1269L13.5409 17.8419L12.8809 17.1269ZM11.6599 18.2379L12.3089 18.9639L11.6599 18.2379ZM19.1289 14.3879C19.1658 14.3801 19.2039 14.3806 19.2405 14.3894C19.2772 14.3982 19.3114 14.4151 19.3407 14.4388C19.3699 14.4626 19.3935 14.4925 19.4097 14.5265C19.426 14.5605 19.4344 14.5977 19.4344 14.6354C19.4344 14.6731 19.426 14.7103 19.4097 14.7443C19.3935 14.7783 19.3699 14.8083 19.3407 14.832C19.3114 14.8557 19.2772 14.8726 19.2405 14.8814C19.2039 14.8902 19.1658 14.8907 19.1289 14.8829C19.0647 14.8829 19.0032 14.8574 18.9578 14.812C18.9124 14.7666 18.8869 14.7051 18.8869 14.6409C18.8854 14.6082 18.8906 14.5756 18.9021 14.5449C18.9136 14.5143 18.9312 14.4863 18.9538 14.4626C18.9764 14.439 19.0036 14.4202 19.0337 14.4073C19.0638 14.3945 19.0962 14.3879 19.1289 14.3879V14.3879Z" stroke="currentColor" stroke-linecap="round" stroke-linejoin="round"/>
</g>
<defs>
<clipPath id="clip0_2100_8703">
<rect width="22" height="22" fill="white"/>
</clipPath>
</defs>
</svg>
