<svg width="20" height="20" viewBox="0 0 20 20" fill="none" xmlns="http://www.w3.org/2000/svg">
<path d="M18.6387 2.39307L19.0318 1.75433L17.7543 0.968183L17.3612 1.60693L18.6387 2.39307ZM7.51506 17.6069C7.29798 17.9597 7.40797 18.4217 7.76074 18.6387C8.1135 18.8558 8.57546 18.7458 8.79255 18.3931L7.51506 17.6069ZM17.3612 1.60693L7.51506 17.6069L8.79255 18.3931L18.6387 2.39307L17.3612 1.60693Z" fill="#333333"/>
<path d="M2.51034 11.736L1.96074 11.2257L0.940067 12.3249L1.48966 12.8352L2.51034 11.736ZM7.64351 18.5495C7.94704 18.8314 8.42159 18.8138 8.70344 18.5103C8.98529 18.2067 8.96772 17.7322 8.66418 17.4503L7.64351 18.5495ZM1.48966 12.8352L7.64351 18.5495L8.66418 17.4503L2.51034 11.736L1.48966 12.8352Z" fill="#333333"/>
</svg>