<svg width="24" height="25" viewBox="0 0 24 25" fill="none" xmlns="http://www.w3.org/2000/svg">
<g clip-path="url(#clip0_2420_26379)">
<path fill-rule="evenodd" clip-rule="evenodd" d="M14.5 11.5V6.5C14.5 5.11929 13.3807 4 12 4C10.6193 4 9.5 5.11929 9.5 6.5V11.5C9.5 12.8807 10.6193 14 12 14C13.3807 14 14.5 12.8807 14.5 11.5ZM12 2.5C9.79086 2.5 8 4.29086 8 6.5V11.5C8 13.7091 9.79086 15.5 12 15.5C14.2091 15.5 16 13.7091 16 11.5V6.5C16 4.29086 14.2091 2.5 12 2.5ZM11.25 18.2143C7.9781 17.9013 5.25 15.5662 5.25 12.5C5.25 12.0858 5.58579 11.75 6 11.75C6.41421 11.75 6.75 12.0858 6.75 12.5C6.75 14.725 8.96666 16.75 12 16.75C15.0333 16.75 17.25 14.725 17.25 12.5C17.25 12.0858 17.5858 11.75 18 11.75C18.4142 11.75 18.75 12.0858 18.75 12.5C18.75 15.5662 16.0219 17.9013 12.75 18.2143V20.75H15.3332C15.7474 20.75 16.0832 21.0858 16.0832 21.5C16.0832 21.9142 15.7474 22.25 15.3332 22.25H12H8.6665C8.25229 22.25 7.9165 21.9142 7.9165 21.5C7.9165 21.0858 8.25229 20.75 8.6665 20.75H11.25V18.2143Z" fill="currentColor"/>
</g>
<defs>
<clipPath id="clip0_2420_26379">
<rect width="20" height="20" fill="white" transform="translate(2 2.5)"/>
</clipPath>
</defs>
</svg>
