<svg width="24" height="24" viewBox="0 0 24 24" fill="none" xmlns="http://www.w3.org/2000/svg">
<path fill-rule="evenodd" clip-rule="evenodd" d="M5.28263 2H16.7644C16.9625 2 17.1419 2.07995 17.2718 2.20921L21.2898 6.20826C21.4244 6.34221 21.5 6.52389 21.5 6.71333V19.2305L21.5 19.2347C21.4956 19.9668 21.2015 20.6676 20.6814 21.1852C20.1613 21.7029 19.4572 21.9956 18.7216 22L18.7174 22H5.28263L5.27835 22C4.54285 21.9956 3.83871 21.7029 3.31862 21.1852C2.79853 20.6676 2.5044 19.9668 2.50001 19.2347L2.5 19.2305V4.76526C2.50439 4.03322 2.79853 3.3324 3.31862 2.81476C3.83871 2.29712 4.54284 2.00438 5.27835 2.00001L5.28263 2ZM16.0467 3.42857V7.63333H7.95331V3.42857H16.0467ZM6.51798 3.42857V8.34762C6.51798 8.74211 6.83929 9.0619 7.23565 9.0619H16.7644C17.1607 9.0619 17.482 8.74211 17.482 8.34762V4.43872L20.0647 7.0092V19.2281C20.062 19.5835 19.919 19.9237 19.6664 20.1751C19.4139 20.4265 19.0721 20.5688 18.715 20.5714H17.482V13.1514C17.482 12.7569 17.1607 12.4371 16.7644 12.4371H7.23565C6.83929 12.4371 6.51798 12.7569 6.51798 13.1514V20.5714H5.28501C4.92789 20.5688 4.58612 20.4265 4.33356 20.1751C4.081 19.9237 3.93797 19.5835 3.93533 19.2281V4.77188C3.93797 4.41645 4.081 4.07629 4.33356 3.82492C4.58612 3.57355 4.92789 3.43119 5.285 3.42857H6.51798ZM16.0467 20.559V13.8657H7.95331V20.559H16.0467ZM13.9157 4.21619C14.3121 4.21619 14.6334 4.53599 14.6334 4.93048V6.16857C14.6334 6.56306 14.3121 6.88286 13.9157 6.88286C13.5193 6.88286 13.198 6.56306 13.198 6.16857V4.93048C13.198 4.53599 13.5193 4.21619 13.9157 4.21619Z" fill="currentColor"/>
</svg>
