<svg width="24" height="24" viewBox="0 0 24 24" fill="none" xmlns="http://www.w3.org/2000/svg">
<path d="M11.916 4.41675L6.49936 8.75008H2.16602V15.2501H6.49936L11.916 19.5835V4.41675Z" stroke="currentColor" stroke-width="1.5" stroke-linecap="round" stroke-linejoin="round"/>
<path d="M18.8242 4.34082C20.8551 6.37237 21.9959 9.12737 21.9959 12C21.9959 14.8726 20.8551 17.6275 18.8242 19.6592M15 8.16498C16.0154 9.18076 16.5859 10.5583 16.5859 11.9946C16.5859 13.4309 16.0154 14.8084 15 15.8242" stroke="currentColor" stroke-width="1.5" stroke-linecap="round" stroke-linejoin="round"/>
<path d="M21.1921 13.704C21.556 13.7371 21.8943 13.905 22.1407 14.1747C22.3871 14.4445 22.5237 14.7967 22.5237 15.162C22.5237 15.5274 22.3871 15.8795 22.1407 16.1493C21.8943 16.4191 21.556 16.587 21.1921 16.62C20.9895 16.6384 20.7853 16.6144 20.5926 16.5495C20.3998 16.4846 20.2226 16.3802 20.0724 16.243C19.9222 16.1058 19.8023 15.9389 19.7202 15.7527C19.6381 15.5666 19.5957 15.3654 19.5957 15.162C19.5957 14.9586 19.6381 14.7574 19.7202 14.5713C19.8023 14.3852 19.9222 14.2182 20.0724 14.081C20.2226 13.9438 20.3998 13.8395 20.5926 13.7746C20.7853 13.7096 20.9895 13.6856 21.1921 13.704ZM21.9241 18.504H20.4601C20.2659 18.5012 20.0731 18.5381 19.8936 18.6124C19.7141 18.6867 19.5516 18.7968 19.4161 18.936C19.6775 19.0479 19.9006 19.2334 20.0583 19.4699C20.216 19.7064 20.3014 19.9838 20.3041 20.268V22.356H23.3641V19.956C23.3641 19.7669 23.3269 19.5797 23.2545 19.405C23.1821 19.2302 23.0761 19.0715 22.9424 18.9378C22.8086 18.8041 22.6499 18.698 22.4752 18.6256C22.3005 18.5533 22.1132 18.516 21.9241 18.516V18.504ZM15.1561 20.28C15.1559 19.992 15.2414 19.7104 15.4016 19.4711C15.5619 19.2318 15.7897 19.0455 16.0561 18.936C15.9202 18.8015 15.7591 18.6952 15.582 18.6231C15.4049 18.551 15.2153 18.5146 15.0241 18.516H13.5601C13.1782 18.516 12.8119 18.6677 12.5419 18.9378C12.2718 19.2078 12.1201 19.5741 12.1201 19.956V22.356H15.1561V20.28ZM14.2921 13.704C14.5827 13.7016 14.8674 13.7858 15.11 13.9457C15.3525 14.1057 15.542 14.3342 15.6543 14.6022C15.7666 14.8702 15.7966 15.1656 15.7405 15.4507C15.6844 15.7358 15.5447 15.9977 15.3393 16.2032C15.1338 16.4086 14.8719 16.5483 14.5867 16.6044C14.3016 16.6605 14.0063 16.6305 13.7383 16.5182C13.4703 16.4059 13.2418 16.2164 13.0818 15.9739C12.9219 15.7313 12.8377 15.4466 12.8401 15.156C12.8401 14.9653 12.8777 14.7765 12.9506 14.6004C13.0236 14.4242 13.1306 14.2641 13.2654 14.1293C13.4002 13.9945 13.5603 13.8875 13.7365 13.8145C13.9126 13.7416 14.1014 13.704 14.2921 13.704ZM16.5961 18.828H18.8401C19.0302 18.8216 19.2197 18.853 19.3977 18.9202C19.5756 18.9875 19.7384 19.0893 19.8768 19.2198C20.0151 19.3504 20.1263 19.507 20.2037 19.6808C20.2812 19.8545 20.3235 20.0419 20.3281 20.232V23.388H15.1561V20.28C15.1529 20.0905 15.1875 19.9022 15.2579 19.7262C15.3282 19.5501 15.4329 19.3899 15.5658 19.2547C15.6987 19.1196 15.8572 19.0122 16.032 18.939C16.2069 18.8657 16.3946 18.828 16.5841 18.828H16.5961ZM17.7241 13.428C18.063 13.4304 18.3936 13.533 18.6742 13.723C18.9548 13.913 19.1729 14.1818 19.3009 14.4956C19.429 14.8094 19.4612 15.154 19.3937 15.4861C19.3261 15.8182 19.1617 16.1228 18.9213 16.3616C18.6808 16.6004 18.375 16.7626 18.0425 16.8279C17.71 16.8931 17.3656 16.8584 17.0527 16.7282C16.7398 16.598 16.4725 16.378 16.2845 16.0961C16.0965 15.8142 15.9961 15.4829 15.9961 15.144C15.9961 14.9177 16.0409 14.6935 16.1279 14.4846C16.2149 14.2756 16.3423 14.0859 16.503 13.9264C16.6636 13.7669 16.8542 13.6407 17.0637 13.5552C17.2733 13.4697 17.4978 13.4264 17.7241 13.428Z" fill="white"/>
<path d="M15.1561 20.28C15.1559 19.992 15.2414 19.7104 15.4016 19.4711C15.5619 19.2318 15.7897 19.0455 16.0561 18.936C15.9202 18.8015 15.7591 18.6952 15.582 18.6231C15.4049 18.551 15.2153 18.5146 15.0241 18.516H13.5601C13.1782 18.516 12.8119 18.6677 12.5419 18.9378C12.2718 19.2078 12.1201 19.5741 12.1201 19.956V22.356H15.1561V20.28ZM15.1561 20.28V23.388H20.3281V20.232C20.3235 20.0419 20.2812 19.8545 20.2037 19.6808C20.1263 19.507 20.0151 19.3504 19.8768 19.2198C19.7384 19.0893 19.5756 18.9875 19.3977 18.9202C19.2197 18.853 19.0302 18.8216 18.8401 18.828H16.5961H16.5841C16.3946 18.828 16.2069 18.8657 16.032 18.939C15.8572 19.0122 15.6987 19.1196 15.5658 19.2547C15.4329 19.3899 15.3282 19.5501 15.2579 19.7262C15.1875 19.9022 15.1529 20.0905 15.1561 20.28ZM21.1921 13.704C21.556 13.7371 21.8943 13.905 22.1407 14.1747C22.3871 14.4445 22.5237 14.7967 22.5237 15.162C22.5237 15.5274 22.3871 15.8795 22.1407 16.1493C21.8943 16.4191 21.556 16.587 21.1921 16.62C20.9895 16.6384 20.7853 16.6144 20.5926 16.5495C20.3998 16.4846 20.2226 16.3802 20.0724 16.243C19.9222 16.1058 19.8023 15.9389 19.7202 15.7527C19.6381 15.5666 19.5957 15.3654 19.5957 15.162C19.5957 14.9586 19.6381 14.7574 19.7202 14.5713C19.8023 14.3852 19.9222 14.2182 20.0724 14.081C20.2226 13.9438 20.3998 13.8395 20.5926 13.7746C20.7853 13.7096 20.9895 13.6856 21.1921 13.704ZM21.9241 18.504H20.4601C20.2659 18.5012 20.0731 18.5381 19.8936 18.6124C19.7141 18.6867 19.5516 18.7968 19.4161 18.936C19.6775 19.0479 19.9006 19.2334 20.0583 19.4699C20.216 19.7064 20.3014 19.9838 20.3041 20.268V22.356H23.3641V19.956C23.3641 19.7669 23.3269 19.5797 23.2545 19.405C23.1821 19.2302 23.0761 19.0715 22.9424 18.9378C22.8086 18.8041 22.6499 18.698 22.4752 18.6256C22.3005 18.5533 22.1132 18.516 21.9241 18.516V18.504ZM14.2921 13.704C14.5827 13.7016 14.8674 13.7858 15.11 13.9457C15.3525 14.1057 15.542 14.3342 15.6543 14.6022C15.7666 14.8702 15.7966 15.1656 15.7405 15.4507C15.6844 15.7358 15.5447 15.9977 15.3393 16.2032C15.1338 16.4086 14.8719 16.5483 14.5867 16.6044C14.3016 16.6605 14.0063 16.6305 13.7383 16.5182C13.4703 16.4059 13.2418 16.2164 13.0818 15.9739C12.9219 15.7313 12.8377 15.4466 12.8401 15.156C12.8401 14.9653 12.8777 14.7765 12.9506 14.6004C13.0236 14.4242 13.1306 14.2641 13.2654 14.1293C13.4002 13.9945 13.5603 13.8875 13.7365 13.8145C13.9126 13.7416 14.1014 13.704 14.2921 13.704ZM17.7241 13.428C18.063 13.4304 18.3936 13.533 18.6742 13.723C18.9548 13.913 19.1729 14.1818 19.3009 14.4956C19.429 14.8094 19.4612 15.154 19.3937 15.4861C19.3261 15.8182 19.1617 16.1228 18.9213 16.3616C18.6808 16.6004 18.375 16.7626 18.0425 16.8279C17.71 16.8931 17.3656 16.8584 17.0527 16.7282C16.7398 16.598 16.4725 16.378 16.2845 16.0961C16.0965 15.8142 15.9961 15.4829 15.9961 15.144C15.9961 14.9177 16.0409 14.6935 16.1279 14.4846C16.2149 14.2756 16.3423 14.0859 16.503 13.9264C16.6636 13.7669 16.8542 13.6407 17.0637 13.5552C17.2733 13.4697 17.4978 13.4264 17.7241 13.428Z" stroke="currentColor" stroke-linecap="round" stroke-linejoin="round"/>
</svg>
