<svg width="24" height="24" viewBox="0 0 24 24" fill="none" xmlns="http://www.w3.org/2000/svg">
<path d="M11.916 4.41675L6.49936 8.75008H2.16602V15.2501H6.49936L11.916 19.5835V4.41675Z" stroke="currentColor" stroke-width="1.5" stroke-linecap="round" stroke-linejoin="round"/>
<path d="M18.8242 4.34082C20.8551 6.37237 21.9959 9.12737 21.9959 12C21.9959 14.8726 20.8551 17.6275 18.8242 19.6592M15 8.16498C16.0154 9.18076 16.5859 10.5583 16.5859 11.9946C16.5859 13.4309 16.0154 14.8084 15 15.8242" stroke="currentColor" stroke-width="1.5" stroke-linecap="round" stroke-linejoin="round"/>
<path d="M18.2157 14.22C17.8113 14.5894 17.5126 15.0597 17.3502 15.5827C17.1878 16.1058 17.1676 16.6626 17.2917 17.196L13.3437 20.796C13.0489 21.0571 12.8685 21.4236 12.8415 21.8165C12.8146 22.2094 12.9432 22.5972 13.1997 22.896C13.4719 23.1881 13.8471 23.3627 14.2458 23.3829C14.6446 23.403 15.0355 23.2672 15.3357 23.004L19.2597 19.404C19.7746 19.5767 20.326 19.6103 20.8581 19.5014C21.3901 19.3926 21.884 19.1452 22.2898 18.7843C22.6955 18.4233 22.9988 17.9617 23.1689 17.4459C23.339 16.9301 23.3699 16.3786 23.2584 15.8471C23.147 15.3156 22.8972 14.8229 22.5342 14.4189C22.1713 14.015 21.7081 13.714 21.1915 13.5464C20.6749 13.3789 20.1233 13.3507 19.5923 13.4648C19.0613 13.5789 18.5699 13.8311 18.1677 14.196L18.2157 14.22ZM15.3957 17.472L16.1157 18.252L15.3957 17.472ZM14.0517 18.684L14.7717 19.464L14.0517 18.684ZM12.7197 19.896L13.4277 20.688L12.7197 19.896ZM20.8677 15.696C20.9079 15.6875 20.9495 15.6881 20.9895 15.6977C21.0295 15.7073 21.0668 15.7257 21.0987 15.7516C21.1307 15.7775 21.1564 15.8101 21.1741 15.8472C21.1918 15.8843 21.201 15.9249 21.201 15.966C21.201 16.0071 21.1918 16.0477 21.1741 16.0848C21.1564 16.1219 21.1307 16.1546 21.0987 16.1805C21.0668 16.2064 21.0295 16.2248 20.9895 16.2344C20.9495 16.244 20.9079 16.2446 20.8677 16.236C20.7977 16.236 20.7306 16.2082 20.6811 16.1587C20.6315 16.1092 20.6037 16.0421 20.6037 15.972C20.6021 15.9364 20.6077 15.9007 20.6203 15.8673C20.6328 15.8339 20.652 15.8034 20.6767 15.7776C20.7014 15.7518 20.731 15.7312 20.7638 15.7172C20.7967 15.7032 20.832 15.696 20.8677 15.696Z" fill="white" stroke="currentColor" stroke-linecap="round" stroke-linejoin="round"/>
</svg>
