<svg width="24" height="24" viewBox="0 0 24 24" fill="none" xmlns="http://www.w3.org/2000/svg">
<path d="M10.916 4.41675L5.49936 8.75008H1.16602V15.2501H5.49936L10.916 19.5835V4.41675Z" stroke="currentColor" stroke-width="1.5" stroke-linecap="round" stroke-linejoin="round"/>
<path d="M17.8242 4.34082C19.8551 6.37237 20.9959 9.12737 20.9959 12C20.9959 14.8726 19.8551 17.6275 17.8242 19.6592M14 8.16498C15.0154 9.18076 15.5859 10.5583 15.5859 11.9946C15.5859 13.4309 15.0154 14.8084 14 15.8242" stroke="currentColor" stroke-width="1.5" stroke-linecap="round" stroke-linejoin="round"/>
<path d="M15.8003 13.3921H22.4243V23.3521H15.8003C15.4279 23.3521 15.0708 23.2042 14.8075 22.9409C14.5442 22.6776 14.3963 22.3205 14.3963 21.9481V14.7481C14.4057 14.3832 14.5581 14.0365 14.8208 13.7828C15.0834 13.5292 15.4352 13.3889 15.8003 13.3921ZM14.3963 21.8881C14.3732 21.5176 14.4979 21.153 14.743 20.8741C14.9882 20.5952 15.3338 20.4248 15.7043 20.4001H22.3643" fill="white"/>
<path d="M14.3963 21.8881C14.3732 21.5176 14.4979 21.153 14.743 20.8741C14.9882 20.5952 15.3338 20.4248 15.7043 20.4001H22.3643M15.8003 13.3921H22.4243V23.3521H15.8003C15.4279 23.3521 15.0708 23.2042 14.8075 22.9409C14.5442 22.6776 14.3963 22.3205 14.3963 21.9481V14.7481C14.4057 14.3832 14.5581 14.0365 14.8208 13.7828C15.0834 13.5292 15.4352 13.3889 15.8003 13.3921V13.3921Z" stroke="currentColor" stroke-linecap="round"/>
</svg>
