<svg width="22" height="22" viewBox="0 0 22 22" fill="none" xmlns="http://www.w3.org/2000/svg">
<path d="M5.04175 16.3648V4.30825C5.04175 3.70073 5.53423 3.20825 6.14175 3.20825H16.3167C16.9243 3.20825 17.4167 3.70073 17.4167 4.30825V16.7767C17.4167 17.647 16.454 18.1726 15.7219 17.702L11.5821 15.0407C11.2264 14.812 10.771 14.8076 10.4108 15.0293L6.71825 17.3015C5.98535 17.7525 5.04175 17.2253 5.04175 16.3648Z" fill="#946CC1" stroke="#946CC1"/>
<path d="M17.4166 19.25L10.9999 14.6666L4.58325 19.25V4.58334C4.58325 4.0971 4.77641 3.63079 5.12023 3.28698C5.46404 2.94315 5.93036 2.75 6.41659 2.75H15.5833C16.0695 2.75 16.5359 2.94315 16.8796 3.28698C17.2235 3.63079 17.4166 4.0971 17.4166 4.58334V19.25Z" stroke="#946CC1" stroke-width="1.5" stroke-linecap="round" stroke-linejoin="round"/>
</svg>
