<svg width="22" height="22" viewBox="0 0 22 22" fill="none" xmlns="http://www.w3.org/2000/svg">
<g opacity="inherit" clip-path="url(#clip0_2100_4612)">
<path d="M16.753 1.1001C18.1554 2.50284 19.0647 4.32277 19.3444 6.28647C19.624 8.25017 19.259 10.2516 18.304 11.9901M13.508 4.2901C13.934 4.71516 14.2721 5.22009 14.5027 5.77597C14.7333 6.33185 14.852 6.92777 14.852 7.5296C14.852 8.13143 14.7333 8.72734 14.5027 9.28323C14.2721 9.83911 13.934 10.344 13.508 10.7691M9.34998 1.1661L4.76298 4.8291H1.09998V10.3291H4.76298L9.34998 14.0031V1.1661Z" stroke="currentColor" stroke-width="1.5" stroke-linecap="round" stroke-linejoin="round"/>
<path d="M19.426 12.5621C19.7595 12.5924 20.0697 12.7463 20.2955 12.9936C20.5214 13.2409 20.6466 13.5637 20.6466 13.8986C20.6466 14.2335 20.5214 14.5563 20.2955 14.8036C20.0697 15.0509 19.7595 15.2048 19.426 15.2351C19.2403 15.252 19.0531 15.23 18.8764 15.1705C18.6997 15.111 18.5373 15.0153 18.3996 14.8895C18.2619 14.7638 18.1519 14.6107 18.0767 14.4401C18.0015 14.2695 17.9626 14.0851 17.9626 13.8986C17.9626 13.7122 18.0015 13.5277 18.0767 13.3571C18.1519 13.1865 18.2619 13.0334 18.3996 12.9077C18.5373 12.782 18.6997 12.6863 18.8764 12.6268C19.0531 12.5673 19.2403 12.5453 19.426 12.5621V12.5621ZM20.097 16.9621H18.755C18.5769 16.9596 18.4002 16.9934 18.2357 17.0614C18.0711 17.1295 17.9222 17.2305 17.798 17.3581C18.0376 17.4606 18.2421 17.6307 18.3867 17.8475C18.5312 18.0643 18.6095 18.3185 18.612 18.5791V20.4931H21.417V18.2931C21.417 18.1198 21.3828 17.9481 21.3165 17.788C21.2502 17.6278 21.1529 17.4823 21.0304 17.3597C20.9078 17.2372 20.7623 17.1399 20.6021 17.0736C20.442 17.0073 20.2703 16.9731 20.097 16.9731V16.9621ZM13.893 18.5901C13.8928 18.3261 13.9711 18.068 14.118 17.8486C14.265 17.6292 14.4738 17.4585 14.718 17.3581C14.5934 17.2348 14.4457 17.1373 14.2834 17.0713C14.121 17.0052 13.9473 16.9718 13.772 16.9731H12.43C12.0799 16.9731 11.7442 17.1122 11.4966 17.3597C11.2491 17.6073 11.11 17.943 11.11 18.2931V20.4931H13.893V18.5901ZM13.101 12.5621C13.3673 12.5599 13.6283 12.6371 13.8507 12.7837C14.073 12.9303 14.2467 13.1398 14.3497 13.3855C14.4526 13.6311 14.4801 13.9019 14.4287 14.1632C14.3773 14.4245 14.2492 14.6647 14.0609 14.853C13.8725 15.0414 13.6324 15.1694 13.3711 15.2208C13.1097 15.2723 12.839 15.2447 12.5933 15.1418C12.3477 15.0389 12.1382 14.8652 11.9916 14.6428C11.8449 14.4204 11.7678 14.1595 11.77 13.8931C11.77 13.7183 11.8044 13.5453 11.8713 13.3838C11.9382 13.2223 12.0362 13.0756 12.1598 12.952C12.2834 12.8284 12.4301 12.7303 12.5916 12.6634C12.7531 12.5965 12.9262 12.5621 13.101 12.5621ZM15.213 17.2591H17.27C17.4443 17.2533 17.618 17.282 17.7811 17.3436C17.9442 17.4053 18.0934 17.4986 18.2203 17.6183C18.3471 17.738 18.4489 17.8816 18.52 18.0408C18.591 18.2001 18.6297 18.3718 18.634 18.5461V21.4391H13.893V18.5901C13.8901 18.4164 13.9218 18.2438 13.9862 18.0824C14.0507 17.9211 14.1467 17.7742 14.2685 17.6503C14.3904 17.5264 14.5357 17.428 14.6959 17.3608C14.8562 17.2937 15.0282 17.2591 15.202 17.2591H15.213ZM16.247 12.3091C16.5576 12.3113 16.8607 12.4054 17.1179 12.5795C17.3751 12.7537 17.575 13.0001 17.6924 13.2877C17.8098 13.5754 17.8393 13.8913 17.7774 14.1957C17.7155 14.5001 17.5648 14.7793 17.3444 14.9982C17.124 15.2171 16.8437 15.3658 16.5388 15.4257C16.234 15.4855 15.9183 15.4537 15.6315 15.3343C15.3447 15.2149 15.0997 15.0133 14.9273 14.7549C14.755 14.4964 14.663 14.1928 14.663 13.8821C14.663 13.6746 14.704 13.4692 14.7838 13.2776C14.8635 13.086 14.9804 12.9121 15.1276 12.7659C15.2748 12.6197 15.4495 12.5041 15.6416 12.4257C15.8338 12.3473 16.0395 12.3077 16.247 12.3091V12.3091Z" stroke="currentColor" stroke-linecap="round" stroke-linejoin="round"/>
</g>
<defs>
<clipPath id="clip0_2100_4612">
<rect width="22" height="22" fill="white"/>
</clipPath>
</defs>
</svg>
